Coordinates
version=1
nRows=16
nColumns=36
inDegrees=yes

Units are S.I. units (second, meters, Newtons, ...)
If the header above contains a line with 'inDegrees', this indicates whether rotational values are in degrees (yes) or radians (no).

endheader
time	pelvis_tilt	pelvis_list	pelvis_rotation	pelvis_tx	pelvis_ty	pelvis_tz	hip_flexion_r	hip_adduction_r	hip_rotation_r	knee_angle_r	knee_angle_r_beta	ankle_angle_r	subtalar_angle_r	mtp_angle_r	hip_flexion_l	hip_adduction_l	hip_rotation_l	knee_angle_l	knee_angle_l_beta	ankle_angle_l	subtalar_angle_l	mtp_angle_l	lumbar_extension	lumbar_bending	lumbar_rotation	arm_flex_r	arm_add_r	arm_rot_r	elbow_flex_r	pro_sup_r	arm_flex_l	arm_add_l	arm_rot_l	elbow_flex_l	pro_sup_l
      3.31000000	     -6.71367698	     -0.31191565	      2.97929967	     -0.38676664	      0.86938029	     -0.67124325	     43.70107890	    -15.62901738	     -7.23324304	     48.02869446	      0.83825885	     15.72922649	     -2.07955927	     -7.49998502	     44.58478168	    -10.39643955	     -4.68578814	     46.61907605	      0.81365637	     16.28730975	     -0.16287995	     -7.49998502	    -17.96287893	     -1.47783774	     -0.20589072	     32.47352471	    -18.72391374	     16.59664319	    103.28581692	     99.33940327	     31.26874793	    -19.87794225	     18.59333513	    114.25202896	    108.66977796
      3.32000000	     -8.98239694	     -0.13821705	      2.97982194	     -0.39095612	      0.85575726	     -0.67118480	     48.09340243	    -16.38099398	     -6.97822873	     50.69869945	      0.88485923	     16.79007987	     -1.72116514	     -7.49998524	     48.71334388	    -10.35864799	     -4.72592817	     48.85028540	      0.85259832	     16.42718465	     -0.47435992	     -7.49998524	    -16.04883703	     -1.88354186	     -0.33638214	     33.58811262	    -18.92672303	     16.79292301	    103.67607826	     99.36038180	     32.49638220	    -20.30550614	     18.98884942	    114.63933939	    108.74801135
      3.33000000	    -11.07486927	      0.06171681	      3.01564719	     -0.39537676	      0.84193720	     -0.67141202	     52.36784140	    -17.16680857	     -6.63186072	     53.41328206	      0.93223764	     17.82107377	     -1.46682826	     -7.49998542	     52.69907128	    -10.26721718	     -4.72193867	     51.18326469	      0.89331649	     16.78192127	     -0.81053025	     -7.49998542	    -14.33681741	     -2.30572865	     -0.52680426	     34.85078320	    -19.26355342	     17.14865021	    104.06204535	     99.40496464	     33.87303745	    -20.84015809	     19.47910134	    115.04686280	    108.83115255
      3.34000000	    -12.81489347	      0.21911814	      3.03667278	     -0.40001918	      0.82832491	     -0.67158628	     56.31157223	    -17.82712125	     -6.14656482	     56.08352305	      0.97884213	     18.64179415	     -1.07386314	     -7.49998560	     56.41238225	    -10.27161028	     -4.65338946	     53.73165919	      0.93779437	     17.24216239	     -1.06557836	     -7.49998560	    -13.06607015	     -2.64199682	     -0.66832028	     36.28761170	    -19.61770161	     17.44864308	    104.38233917	     99.45082486	     35.40357225	    -21.38879452	     19.89304666	    115.37838925	    108.89729125
      3.35000000	    -14.00219799	      0.24933307	      3.12651622	     -0.40472280	      0.81534733	     -0.67183380	     59.60368677	    -18.40463722	     -5.80728968	     58.69577987	      1.02443462	     19.22479424	     -0.84533171	     -7.49998573	     59.67344469	    -10.42020721	     -4.54713508	     56.42647036	      0.98482769	     17.55964929	     -1.18681605	     -7.49998573	    -12.51107775	     -2.79348016	     -0.90460084	     37.96600850	    -20.03625658	     17.75656717	    104.76221757	     99.49366334	     37.14542506	    -21.95107900	     20.28430973	    115.71431395	    108.96137563
      3.36000000	    -15.15112006	      0.23237923	      3.22495528	     -0.40959723	      0.80224245	     -0.67227040	     62.83721296	    -18.89016105	     -5.34708027	     61.21587988	      1.06841866	     19.96835544	     -0.38252578	     -7.49998589	     62.92313840	    -10.49649109	     -4.21029768	     59.01848008	      1.03006680	     17.74277695	     -1.05177609	     -7.49998589	    -12.01045503	     -2.83433389	     -1.12136162	     39.80450999	    -20.52999095	     18.31164070	    105.08728509	     99.52755261	     39.02624563	    -22.63077810	     20.83667302	    115.98977374	    109.02516647
      3.37000000	    -15.83729956	      0.19046825	      3.37669822	     -0.41444099	      0.78979307	     -0.67306134	     65.52917286	    -19.42223029	     -4.92700757	     63.71884162	      1.11210358	     20.81286687	      0.23436554	     -7.49998610	     65.67171519	    -10.52654585	     -3.86390709	     61.52615847	      1.07383404	     17.98513457	     -0.83182729	     -7.49998610	    -12.07982466	     -2.77360064	     -1.38477630	     41.85006531	    -21.16062411	     18.91000710	    105.32744436	     99.54118055	     41.05475891	    -23.33032414	     21.41724724	    116.14888900	    109.06186874
      3.38000000	    -16.19379585	      0.08742515	      3.52293854	     -0.41932974	      0.77771470	     -0.67376510	     67.83356891	    -19.89794873	     -4.61665943	     66.12989509	      1.15418440	     21.41247982	      0.44008983	     -7.49998622	     68.05874210	    -10.62251220	     -3.52810321	     63.97623141	      1.11659588	     18.36365108	     -0.86173113	     -7.49998622	    -12.58199929	     -2.64199287	     -1.65396288	     44.02161312	    -21.82540302	     19.42351414	    105.59545491	     99.56343305	     43.26402185	    -24.01025966	     21.94677192	    116.27184321	    109.09221424
      3.39000000	    -16.48782415	     -0.11785171	      3.59315404	     -0.42430971	      0.76551093	     -0.67399877	     70.02723235	    -20.12236156	     -4.21495875	     68.44240152	      1.19454525	     22.10673514	      0.76650719	     -7.49998638	     70.40109153	    -10.80923886	     -3.04211823	     66.37053575	      1.15838438	     18.95598116	     -0.84939665	     -7.49998638	    -13.11029032	     -2.42352778	     -1.77391724	     46.32400826	    -22.52748644	     20.22332036	    105.73635910	     99.57149631	     45.69798437	    -24.79829575	     22.74459638	    116.27173450	    109.10369060
      3.40000000	    -16.50286121	     -0.31338473	      3.58264535	     -0.42910550	      0.75369720	     -0.67391601	     71.91764028	    -20.24866736	     -3.82492962	     70.70562431	      1.23404594	     22.76311341	      1.07593433	     -7.49998662	     72.37944471	    -11.08651101	     -2.58587232	     68.68477353	      1.19877544	     19.56313063	     -0.73199482	     -7.49998662	    -13.92847221	     -2.22119837	     -1.85083977	     48.66184231	    -23.16378689	     20.92198636	    105.78326499	     99.54160644	     48.16745393	    -25.58102310	     23.49242671	    116.15550111	    109.05895007
      3.41000000	    -16.42289879	     -0.38732984	      3.55611917	     -0.43365375	      0.74227525	     -0.67374920	     73.71884275	    -20.36823018	     -3.27845732	     72.89900063	      1.27232758	     23.23800359	      1.12927900	     -7.49998679	     74.13201856	    -11.30525556	     -2.25358980	     70.82321845	      1.23609835	     20.01528960	     -0.78846379	     -7.49998679	    -14.85919929	     -2.19126928	     -1.99779144	     50.92410935	    -23.70084519	     21.62271680	    105.80470604	     99.52223523	     50.63249162	    -26.47741103	     24.22856005	    116.08371317	    109.06018173
      3.42000000	    -16.22993767	     -0.28552905	      3.56434115	     -0.43778310	      0.73129628	     -0.67380619	     75.41818776	    -20.61969746	     -2.57749701	     75.04375704	      1.30976064	     23.69240845	      1.30563373	     -7.49998702	     75.62786097	    -11.38016459	     -2.08015459	     72.85623392	      1.27158116	     20.47142097	     -0.82530861	     -7.49998702	    -15.86372936	     -2.34032261	     -2.24056442	     53.09210071	    -24.16088957	     22.37122577	    105.70099741	     99.44859480	     53.08411888	    -27.39402646	     24.98940101	    115.92256570	    109.07619511
      3.43000000	    -16.13996600	     -0.19704071	      3.58864430	     -0.44152667	      0.72028591	     -0.67387986	     77.17967261	    -20.85346865	     -1.87410213	     77.10970985	      1.34581832	     23.98147457	      1.31893701	     -7.49998714	     77.22686264	    -11.42770536	     -1.87367638	     74.88451818	      1.30698140	     20.85388582	     -0.99454955	     -7.49998714	    -16.62846235	     -2.45927980	     -2.46650140	     55.01965613	    -24.61716984	     23.03293449	    105.64953003	     99.40107081	     55.22063747	    -28.13538207	     25.62600009	    115.69585142	    109.09219968
      3.44000000	    -16.04615011	     -0.07519428	      3.55503653	     -0.44517370	      0.70943530	     -0.67366280	     78.94276780	    -20.97232820	     -1.06574772	     79.09211395	      1.38041780	     24.24539229	      1.46888214	     -7.49998732	     78.76808321	    -11.49587041	     -1.63070983	     76.83490112	      1.34102200	     21.26269692	     -1.01321219	     -7.49998732	    -17.32387775	     -2.62787952	     -2.59364870	     56.90698859	    -25.06050705	     23.80035276	    105.49880739	     99.30017837	     57.47398542	    -28.86861983	     26.56486533	    115.30042678	    109.07601386
      3.45000000	    -15.98527543	      0.02576342	      3.45442364	     -0.44862727	      0.69866001	     -0.67330342	     80.71889321	    -20.98012636	     -0.27423450	     81.01449187	      1.41396962	     24.42606041	      1.50576865	     -7.49998745	     80.34762244	    -11.70098795	     -1.45387198	     78.77706916	      1.37491923	     21.53355743	     -1.01227051	     -7.49998745	    -17.90088104	     -2.76035236	     -2.61704260	     58.62602471	    -25.52722473	     24.50748684	    105.43008386	     99.24351797	     59.48017912	    -29.63540049	     27.46849899	    114.93019496	    109.05362750
      3.46000000	    -15.85495287	      0.20378439	      3.31654185	     -0.45213192	      0.68819347	     -0.67300114	     82.42666629	    -20.95447086	      0.58021961	     82.83114433	      1.44567619	     24.57490397	      1.57966009	     -7.49998760	     81.78183070	    -11.90684291	     -1.36827450	     80.60615024	      1.40684272	     21.77181578	     -0.92508132	     -7.49998760	    -18.54405718	     -2.98011345	     -2.59884994	     60.36117207	    -26.04132401	     25.31967263	    105.31506757	     99.18525618	     61.58405289	    -30.45161742	     28.60156756	    114.54910378	    109.01240471
